<svg width="187" height="50" viewBox="0 0 187 50" fill="none" xmlns="http://www.w3.org/2000/svg">
<g clip-path="url(#clip0)">
<path fill-rule="evenodd" clip-rule="evenodd" d="M24.2109 18.9888H24.78V15.4427H24.2109V18.9888ZM26.7873 18.9559H27.3544V15.4427H26.7873V18.9559ZM22.9392 18.9559H23.4754V15.4427H22.9392V18.9559ZM46.7401 20.278L27.9468 18.1874V19.2056V19.3508H28.361C28.6862 19.3508 28.903 19.5134 28.903 19.8289V19.8928C28.903 20.0902 28.6552 20.338 28.4558 20.338H28.0745C29.6056 30.2931 29.6656 30.3318 30.5947 36.1736L31.3806 38.0105H33.7441L37.1566 41.8567L37.9561 40.7263L39.3788 41.936C44.1889 37.8673 47.2472 31.7913 47.2472 24.999C47.2472 23.3789 47.0711 21.7994 46.7401 20.278ZM6.27513 13.2535L22.3411 16.7667C22.3411 16.5034 22.3411 16.2382 22.3411 15.975H21.7043C21.47 15.975 21.2591 15.7137 21.2591 15.464C21.2591 15.1446 21.5242 14.9878 21.863 14.9878C22.0159 14.6704 22.074 14.3974 22.2714 14.0877C22.7456 13.3444 23.7657 12.5663 24.6658 12.5663V7.69424C24.6832 7.19484 25.4943 7.22969 25.4943 7.69424V12.5663C26.7621 12.5953 28.0435 13.8961 28.2971 14.9878H28.4558C28.6552 14.9878 28.903 15.2336 28.903 15.433V15.5298C28.903 15.7272 28.6552 15.975 28.4558 15.975H27.9468V16.7822L44.4482 14.2155C40.6602 7.42519 33.4053 2.82993 25.0781 2.82993C17.1497 2.82993 10.1929 6.99547 6.27513 13.2535ZM11.4666 42.0173C12.0415 40.8172 13.7313 39.7584 14.8636 38.6319L16.689 39.3577L18.9789 35.4864L19.7105 35.5987C20.7771 28.8742 20.9668 28.3574 22.2191 20.338H21.7043C21.4991 20.338 21.2591 20.065 21.2591 19.8599V19.796C21.2591 19.4882 21.5359 19.3508 21.863 19.3508H22.3411C22.3411 18.9656 22.3411 18.5823 22.3411 18.1971L3.66779 19.2327C3.1742 21.0716 2.90902 23.0053 2.90902 24.999C2.90902 32.1532 6.30029 38.5177 11.5614 42.5709L11.4666 42.0173ZM23.156 25.8159H24.1025V23.9151H23.156V25.8159ZM26.1969 30.9996H27.1454V28.9265H26.1969V30.9996ZM32.5227 43.6723L33.7692 43.6762L34.377 42.1548L35.5384 42.5496L33.8815 40.6488L31.882 41.818L32.4201 42.598L32.5227 43.6723ZM27.0796 34.3599L24.2013 38.2118L26.2008 40.3082L25.8601 40.9914L28.5913 43.6723L27.8597 40.0643L29.4682 40.7959L29.6927 39.712L27.9119 37.6582L29.4237 37.7802L29.0288 35.529L27.0796 34.3599ZM21.6926 36.1136L21.35 40.0623L22.8134 43.6704H25.9821L21.6926 36.1136ZM15.8837 43.6685H19.5944L18.3769 42.1103L15.8837 43.6685ZM25.5156 18.9559H26.0518V15.4427H25.5156V18.9559ZM25.0781 0C38.8813 0 50.0771 11.1958 50.0771 24.999C50.0771 38.8041 38.8813 50 25.0781 50C11.273 50 0.0771484 38.8041 0.0771484 24.999C0.0771484 11.1958 11.273 0 25.0781 0Z" fill="white"/>
<path d="M184.942 16.2131C184.942 16.5983 184.867 16.9448 184.714 17.2506C184.559 17.5584 184.348 17.8159 184.075 18.0268C183.802 18.2359 183.479 18.3985 183.103 18.5108C182.73 18.625 182.32 18.6811 181.878 18.6811H178.216V13.8458H181.896C182.86 13.8458 183.609 14.0529 184.143 14.4672C184.675 14.8814 184.942 15.464 184.942 16.2131ZM186.731 24.5229L183.069 19.6528C183.535 19.5734 183.967 19.436 184.364 19.2444C184.762 19.0508 185.105 18.8089 185.395 18.5204C185.684 18.2301 185.908 17.8894 186.067 17.4984C186.226 17.1074 186.305 16.6603 186.305 16.1609C186.305 15.6286 186.202 15.1427 185.999 14.7053C185.794 14.2678 185.506 13.8942 185.13 13.5826C184.755 13.269 184.304 13.029 183.777 12.8586C183.249 12.6883 182.654 12.6031 181.996 12.6031H176.871V24.5229H178.216V19.8909H181.623L185.08 24.5229H186.731ZM172.632 18.5804C172.632 19.2599 172.515 19.9006 172.283 20.4948C172.049 21.091 171.728 21.6117 171.319 22.053C170.911 22.4963 170.421 22.8447 169.846 23.1002C169.273 23.3557 168.646 23.4835 167.965 23.4835C167.283 23.4835 166.656 23.3538 166.083 23.0925C165.51 22.8312 165.013 22.4789 164.593 22.0375C164.173 21.5943 163.848 21.0716 163.613 20.4696C163.381 19.8677 163.265 19.227 163.265 18.5456C163.265 17.8643 163.381 17.2255 163.613 16.6293C163.848 16.0351 164.167 15.5144 164.577 15.0711C164.986 14.6298 165.475 14.2794 166.048 14.0239C166.623 13.7684 167.25 13.6406 167.932 13.6406C168.613 13.6406 169.238 13.7723 169.813 14.0336C170.386 14.293 170.884 14.6452 171.302 15.0885C171.722 15.5318 172.049 16.0544 172.283 16.6564C172.515 17.2565 172.632 17.8991 172.632 18.5804ZM174.027 18.5456C174.027 17.7171 173.882 16.9313 173.594 16.188C173.303 15.4427 172.891 14.7904 172.359 14.2291C171.824 13.6677 171.186 13.2206 170.442 12.8915C169.699 12.5625 168.872 12.3979 167.965 12.3979C167.057 12.3979 166.228 12.5664 165.479 12.9012C164.73 13.2361 164.088 13.6871 163.555 14.2542C163.021 14.8214 162.607 15.4776 162.313 16.2209C162.016 16.9661 161.869 17.75 161.869 18.5804C161.869 19.4089 162.014 20.1948 162.303 20.9381C162.591 21.6814 163.004 22.3337 163.538 22.897C164.07 23.4583 164.711 23.9035 165.452 24.2345C166.197 24.5636 167.022 24.7262 167.932 24.7262C168.84 24.7262 169.668 24.5597 170.417 24.2248C171.166 23.89 171.809 23.4389 172.341 22.8718C172.875 22.3027 173.29 21.6485 173.584 20.9052C173.88 20.1599 174.027 19.3741 174.027 18.5456ZM156.691 13.8458H160.694V12.6031H151.328V13.8458H155.329V24.5229H156.691V13.8458ZM149.829 22.6318L148.943 21.7646C148.376 22.3085 147.797 22.7324 147.207 23.0325C146.616 23.3344 145.912 23.4835 145.095 23.4835C144.437 23.4835 143.827 23.3557 143.264 23.1002C142.702 22.8447 142.215 22.4963 141.8 22.053C141.386 21.6117 141.061 21.0891 140.829 20.4871C140.596 19.8851 140.48 19.2386 140.48 18.5456C140.48 17.8526 140.596 17.21 140.829 16.6119C141.061 16.0176 141.386 15.4989 141.8 15.0537C142.215 14.6123 142.702 14.2659 143.264 14.0162C143.827 13.7665 144.437 13.6406 145.095 13.6406C145.912 13.6406 146.614 13.7936 147.197 14.1013C147.783 14.4072 148.329 14.8001 148.84 15.2763L149.762 14.2891C149.466 14.0045 149.16 13.7471 148.84 13.5148C148.523 13.2806 148.176 13.0832 147.803 12.9167C147.429 12.7522 147.023 12.6244 146.585 12.5334C146.148 12.4425 145.656 12.3979 145.112 12.3979C144.237 12.3979 143.432 12.5605 142.695 12.8838C141.955 13.2071 141.32 13.6503 140.786 14.2117C140.254 14.773 139.836 15.4292 139.536 16.1783C139.234 16.9274 139.083 17.7288 139.083 18.5804C139.083 19.4418 139.234 20.249 139.536 20.9981C139.836 21.7472 140.254 22.3976 140.786 22.9473C141.32 23.499 141.951 23.9325 142.677 24.25C143.403 24.5674 144.199 24.7262 145.06 24.7262C145.606 24.7262 146.099 24.6758 146.543 24.5732C146.986 24.4726 147.4 24.3294 147.785 24.1474C148.173 23.9674 148.533 23.7487 148.867 23.4931C149.202 23.2376 149.522 22.9512 149.829 22.6318ZM134.588 20.1638H129.155L131.88 14.0839L134.588 20.1638ZM132.527 12.518H131.268L125.835 24.5229H127.213L128.628 21.3717H135.117L136.512 24.5229H137.96L132.527 12.518ZM125.614 12.6031H117.047V24.5229H118.392V19.3295H124.848V18.1023H118.392V13.8458H125.614V12.6031ZM105.418 13.8458H109.419V12.6031H100.052V13.8458H104.055V24.5229H105.418V13.8458ZM97.7196 12.6031H96.3743V19.5328C96.3743 20.8394 96.0511 21.8207 95.4046 22.4789C94.7581 23.137 93.8831 23.466 92.7817 23.466C91.6358 23.466 90.7416 23.1196 90.0989 22.4285C89.4582 21.7356 89.1369 20.7426 89.1369 19.4476V12.6031H87.7916V19.5328C87.7916 20.3729 87.9116 21.1162 88.1497 21.7646C88.3878 22.4111 88.7246 22.9531 89.1621 23.3906C89.5995 23.828 90.1222 24.1571 90.73 24.3777C91.3358 24.5984 92.0094 24.7107 92.7469 24.7107C93.496 24.7107 94.1754 24.5984 94.7832 24.3777C95.3891 24.1571 95.9117 23.8241 96.3492 23.3828C96.7866 22.9395 97.1234 22.3879 97.3635 21.7298C97.6015 21.0716 97.7196 20.3051 97.7196 19.4302V12.6031ZM84.1642 16.4512C84.1642 16.848 84.0887 17.21 83.9358 17.5333C83.7809 17.8565 83.5603 18.1352 83.2699 18.3675C82.9815 18.5998 82.635 18.7779 82.2324 18.9037C81.8279 19.0276 81.3827 19.0915 80.8949 19.0915H77.9488V13.8458H80.9626C81.9285 13.8458 82.7028 14.0646 83.2873 14.502C83.8719 14.9375 84.1642 15.5879 84.1642 16.4512ZM85.5269 16.4009C85.5269 15.8105 85.4224 15.2782 85.2114 14.8078C85.0023 14.3375 84.7004 13.9387 84.3094 13.6155C83.9184 13.2922 83.448 13.0425 82.8963 12.8664C82.3447 12.6902 81.7349 12.6031 81.0652 12.6031H76.6035V24.5229H77.9488V20.3167H80.8445C81.4794 20.3167 82.0814 20.2354 82.6486 20.069C83.2177 19.9044 83.7132 19.6586 84.139 19.3295C84.5649 19.0005 84.9036 18.5921 85.1533 18.1023C85.4011 17.6146 85.5269 17.0474 85.5269 16.4009ZM71.9212 22.1556L64.4108 12.6031H63.1507V24.5229H64.4631V14.7478L72.1592 24.5229H73.2316V12.6031H71.9212V22.1556ZM58.3135 24.5229H59.6607V12.6031H58.3135V24.5229ZM58.3135 12.6031V24.5229V12.6031Z" fill="white"/>
<path d="M183.113 34.0929V33.0882L186.744 33.0824V36.2627C186.186 36.706 185.612 37.0389 185.019 37.2654C184.427 37.4899 183.817 37.6022 183.194 37.6022C182.352 37.6022 181.585 37.4222 180.9 37.0602C180.211 36.7021 179.692 36.1795 179.34 35.4981C178.99 34.8149 178.814 34.0522 178.814 33.2102C178.814 32.3759 178.99 31.5978 179.338 30.8758C179.686 30.1499 180.188 29.6137 180.844 29.2614C181.498 28.913 182.253 28.7369 183.107 28.7369C183.726 28.7369 184.286 28.8375 184.787 29.0388C185.288 29.2382 185.681 29.517 185.966 29.877C186.25 30.2351 186.465 30.7035 186.616 31.2803L185.592 31.561C185.462 31.1255 185.302 30.7809 185.112 30.5312C184.921 30.2815 184.648 30.0822 184.293 29.9331C183.939 29.7821 183.544 29.7067 183.113 29.7067C182.594 29.7067 182.145 29.786 181.767 29.9447C181.388 30.1015 181.084 30.3106 180.852 30.568C180.619 30.8255 180.439 31.1061 180.31 31.4158C180.093 31.9443 179.983 32.5192 179.983 33.1405C179.983 33.9051 180.114 34.5439 180.378 35.0587C180.641 35.5736 181.026 35.955 181.527 36.2047C182.031 36.4544 182.565 36.5802 183.128 36.5802C183.622 36.5802 184.102 36.4834 184.568 36.2937C185.037 36.1059 185.391 35.9046 185.631 35.6898V34.0929H183.113ZM164.652 37.4551V28.884H165.816L170.318 35.6123V28.884H171.406V37.4551H170.242L165.74 30.719V37.4551H164.652ZM155.74 28.884H156.875V37.4551H155.74V28.884ZM144.626 37.4551V29.8944H141.802V28.884H148.596V29.8944H145.758V37.4551H144.626ZM130.834 37.4551V28.884H131.971V36.4427H136.192V37.4551H130.834ZM122.07 28.884H123.206V33.8373C123.206 34.6968 123.107 35.382 122.912 35.8891C122.718 36.3963 122.366 36.8066 121.857 37.1241C121.348 37.4435 120.682 37.6022 119.855 37.6022C119.052 37.6022 118.394 37.4648 117.885 37.186C117.374 36.9112 117.008 36.5086 116.791 35.9859C116.57 35.4594 116.464 34.7452 116.464 33.8373V28.884H117.596V33.8315C117.596 34.5748 117.668 35.1246 117.803 35.4749C117.943 35.8291 118.181 36.1001 118.518 36.2918C118.855 36.4834 119.267 36.5802 119.755 36.5802C120.589 36.5802 121.185 36.3885 121.539 36.0111C121.892 35.6336 122.07 34.9058 122.07 33.8315V28.884ZM102.283 34.7006L103.354 34.6077C103.404 35.0355 103.522 35.3878 103.706 35.6627C103.892 35.9375 104.18 36.1601 104.569 36.3285C104.958 36.4989 105.396 36.5821 105.884 36.5821C106.317 36.5821 106.699 36.5202 107.03 36.3924C107.361 36.2627 107.608 36.0866 107.771 35.862C107.932 35.6375 108.015 35.3936 108.015 35.1284C108.015 34.8574 107.937 34.6252 107.779 34.4238C107.622 34.2206 107.364 34.0541 107.008 33.9186C106.776 33.8296 106.271 33.6883 105.481 33.4986C104.695 33.3089 104.142 33.1328 103.828 32.9644C103.418 32.7514 103.112 32.4843 102.911 32.1669C102.711 31.8494 102.611 31.4933 102.611 31.0984C102.611 30.6667 102.732 30.2622 102.978 29.8867C103.224 29.5092 103.584 29.2247 104.055 29.0272C104.527 28.8356 105.049 28.7369 105.626 28.7369C106.263 28.7369 106.822 28.8395 107.31 29.0447C107.794 29.2479 108.168 29.5499 108.429 29.9467C108.688 30.3435 108.83 30.7945 108.851 31.2978L107.763 31.381C107.703 30.839 107.506 30.4287 107.167 30.1519C106.83 29.8751 106.333 29.7376 105.675 29.7376C104.987 29.7376 104.488 29.8634 104.175 30.1131C103.861 30.3667 103.702 30.6687 103.702 31.0229C103.702 31.3326 103.814 31.5842 104.037 31.7836C104.256 31.983 104.825 32.1862 105.746 32.3933C106.67 32.6024 107.303 32.7843 107.645 32.9411C108.145 33.1715 108.512 33.4638 108.75 33.8141C108.988 34.1683 109.107 34.5748 109.107 35.0355C109.107 35.4904 108.977 35.9201 108.716 36.3247C108.454 36.7273 108.079 37.0389 107.589 37.2654C107.101 37.4899 106.55 37.6022 105.938 37.6022C105.162 37.6022 104.511 37.4899 103.989 37.2615C103.464 37.037 103.054 36.6963 102.754 36.2414C102.456 35.7885 102.299 35.2736 102.283 34.7006ZM88.2189 37.4551V28.884H89.3841L93.8865 35.6123V28.884H94.9743V37.4551H93.811L89.3067 30.719V37.4551H88.2189ZM73.9531 33.2992C73.9531 34.3309 74.2299 35.1439 74.7835 35.7382C75.3409 36.3343 76.0378 36.6305 76.8759 36.6305C77.7315 36.6305 78.4322 36.3324 78.9839 35.7304C79.5355 35.1304 79.8123 34.2787 79.8123 33.1734C79.8123 32.4766 79.6923 31.8688 79.4562 31.3481C79.2219 30.8274 78.8755 30.4248 78.4225 30.1364C77.9676 29.8518 77.4586 29.7067 76.8933 29.7067C76.09 29.7067 75.399 29.9834 74.8202 30.5351C74.2415 31.0868 73.9531 32.0081 73.9531 33.2992ZM72.782 33.2799C72.782 31.8572 73.1633 30.7422 73.9279 29.9389C74.6925 29.1337 75.6777 28.7311 76.8875 28.7311C77.6792 28.7311 78.3935 28.9208 79.0284 29.2982C79.6613 29.6776 80.1472 30.2041 80.4801 30.8816C80.815 31.5552 80.9795 32.3237 80.9795 33.1792C80.9795 34.0503 80.8053 34.8284 80.455 35.5136C80.1046 36.2008 79.6071 36.7195 78.9645 37.0718C78.3199 37.4261 77.627 37.6022 76.8817 37.6022C76.0746 37.6022 75.3526 37.4086 74.7196 37.0157C74.0828 36.6266 73.6008 36.0943 73.2737 35.4188C72.9465 34.7471 72.782 34.0328 72.782 33.2799ZM64.8071 34.449L65.9414 34.7374C65.7052 35.6665 65.2755 36.3789 64.658 36.8686C64.0406 37.3583 63.2857 37.6022 62.3914 37.6022C61.4661 37.6022 60.717 37.4144 60.1383 37.0389C59.5595 36.6615 59.1182 36.1156 58.8162 35.4033C58.5162 34.689 58.3633 33.9225 58.3633 33.1037C58.3633 32.2114 58.5336 31.4333 58.8743 30.7693C59.215 30.1054 59.7008 29.5983 60.3318 29.2537C60.959 28.9092 61.652 28.7369 62.4088 28.7369C63.2663 28.7369 63.9883 28.9537 64.5729 29.3911C65.1574 29.8286 65.5639 30.4422 65.7943 31.2339L64.6793 31.4971C64.48 30.8719 64.1915 30.419 63.8122 30.1344C63.4347 29.8499 62.9605 29.7067 62.3856 29.7067C61.7275 29.7067 61.1777 29.8654 60.7345 30.179C60.2912 30.4983 59.9796 30.9203 59.8015 31.4545C59.6234 31.9849 59.5324 32.5346 59.5324 33.0979C59.5324 33.8296 59.6389 34.4626 59.8499 35.0084C60.0647 35.5504 60.3938 35.9588 60.8429 36.2279C61.2919 36.4969 61.7758 36.6305 62.3004 36.6305C62.9334 36.6305 63.4715 36.4466 63.9128 36.0827C64.3541 35.7149 64.6503 35.171 64.8071 34.449Z" fill="white"/>
</g>
<defs>
<clipPath id="clip0">
<rect width="186.822" height="50" fill="white"/>
</clipPath>
</defs>
</svg>
